<svg width="122" height="29" fill="none" xmlns="http://www.w3.org/2000/svg"><path d="M12.877 17.555v3.652c0 4.399-2.197 6.912-6.435 6.912C2.204 28.12 0 25.606 0 21.207V6.912C0 2.513 2.204 0 6.442 0c4.238 0 6.435 2.513 6.435 6.912v2.67H8.796V6.638c0-1.964-.863-2.71-2.237-2.71-1.373 0-2.236.746-2.236 2.71v14.845c0 1.964.863 2.67 2.236 2.67 1.374 0 2.237-.706 2.237-2.67v-3.927h4.08zM28.14 11.913h5.926v3.927H28.14v8.05h7.455v3.928H23.824v-5H19.47l-1.256 4.987h-4.12L21.431.315h14.165V4.24h-7.455v7.672zm-4.316 7.2V5.852h-.078L20.45 19.087l3.374.026zM44.072 0c4.198 0 6.356 2.513 6.356 6.912v.864h-4.08V6.637c0-1.964-.785-2.71-2.159-2.71-1.373 0-2.158.746-2.158 2.71s.864 3.495 3.689 5.97c3.597 3.18 4.748 5.459 4.748 8.6 0 4.399-2.198 6.912-6.436 6.912-4.237 0-6.428-2.513-6.428-6.912v-1.689h4.08v1.964c0 1.964.864 2.67 2.237 2.67 1.374 0 2.237-.706 2.237-2.67 0-1.963-.87-3.495-3.695-5.97-3.597-3.18-4.748-5.458-4.748-8.6C37.715 2.513 39.873 0 44.072 0zM66.905 27.805h-4.352l-.752-4.988h-5.297l-.746 4.988h-3.956L56.196.315h6.318l4.391 27.49zm-9.845-8.718h4.159L59.185 5.184h-.078L57.06 19.086zM77.931 27.805c-.232-.707-.389-1.139-.389-3.377v-4.334c0-2.552-.863-3.495-2.825-3.495h-1.49v11.193H68.91V.302h6.513c4.47 0 6.393 2.08 6.393 6.322v2.16c0 2.828-.9 4.634-2.822 5.537v.079c2.155.903 2.861 2.945 2.861 5.812v4.255c0 1.335.04 2.317.471 3.338h-4.395zM73.226 4.241v8.444h1.687c1.61 0 2.59-.707 2.59-2.906v-2.71c0-1.964-.654-2.828-2.197-2.828h-2.08zM84.69.314h4.313v27.491H84.69V.315zM91.783 6.912c0-4.399 2.315-6.912 6.54-6.912 4.224 0 6.539 2.513 6.539 6.912v14.295c0 4.399-2.315 6.912-6.54 6.912-4.224 0-6.54-2.513-6.54-6.912V6.912zm4.316 14.57c0 1.964.863 2.71 2.237 2.71 1.373 0 2.236-.746 2.236-2.71V6.637c0-1.964-.863-2.71-2.236-2.71-1.374 0-2.237.746-2.237 2.71v14.845zM111.598 7.894h-.078v19.911h-3.885V.315h5.415l4.356 16.454h.078V.314h3.845v27.491h-4.433l-5.298-19.911z" fill="#fff"/></svg>